<svg width="81" height="81" viewBox="0 0 81 81" fill="none" xmlns="http://www.w3.org/2000/svg">
<circle cx="40.5" cy="40.5" r="40" fill="white" stroke="#F2F0EE"/>
<g clip-path="url(#clip0)">
<path d="M44.856 30.1953C44.7957 26.4534 44.3421 19.9439 44.3421 19.9439H37.6578C37.6578 19.9439 37.2043 26.4534 37.1439 30.1953C37.129 31.1202 36.8536 32.0216 36.3511 32.7982L34.781 35.2248C34.263 36.0254 33.9874 36.9587 33.9874 37.9122V60.5698C33.9874 61.9119 35.0754 62.9998 36.4174 62.9998H45.5824C46.9245 62.9998 48.0124 61.9119 48.0124 60.5698V37.9123C48.0124 36.9587 47.7368 36.0255 47.2188 35.2249L45.6487 32.7983C45.1463 32.0216 44.8709 31.1203 44.856 30.1953Z" fill="#F3F0F3"/>
<path d="M48.0124 37.9118V60.5702C48.0124 61.9121 46.9248 62.9996 45.5821 62.9996H43.5514C44.8932 62.9996 45.9817 61.9121 45.9817 60.5702V37.9118C45.9817 36.9584 45.7061 36.0253 45.1873 35.2245L43.618 32.7979C43.1149 32.0211 42.8393 31.1205 42.8246 30.1957C42.7645 26.4532 42.3113 20.4599 42.3113 20.4599H44.342C44.342 20.4599 44.7961 26.4533 44.8562 30.1957C44.871 31.1205 45.1466 32.0211 45.6487 32.7979L47.2189 35.2245C47.7369 36.0254 48.0124 36.9584 48.0124 37.9118Z" fill="#E2DEE2"/>
<path d="M47.8106 37.8952V56.3647L48.0124 56.7437V60.5703C48.0124 61.9121 46.9249 62.9996 45.5822 62.9996H36.4178C35.0751 62.9996 33.9875 61.9121 33.9875 60.5703V56.7437L34.1502 56.3995V37.9998C34.1502 37.8365 33.9956 37.5858 34.0116 37.4242C34.0891 36.6426 34.3519 35.8881 34.781 35.2245L36.3512 32.7979C36.8533 32.0212 37.1288 31.1205 37.1437 30.1957C37.1566 29.3782 37.189 28.4544 37.2306 27.5084H44.7692C44.8108 28.4544 44.8432 29.3782 44.8562 30.1957C44.871 31.1205 45.1466 32.0212 45.6487 32.7979L47.2189 35.2245C47.5137 35.6805 47.7859 36.1825 47.9176 36.7035C47.9626 36.8815 47.9925 37.0616 48.0063 37.2419C48.0093 37.28 48.0123 37.3957 48.0123 37.4218C48.0124 37.4218 47.8106 37.7319 47.8106 37.8952Z" fill="#FEE45A"/>
<path d="M48.0124 60.5703C48.0124 61.9121 46.9248 62.9996 45.5821 62.9996H43.5514C44.8932 62.9996 45.9816 61.9121 45.9816 60.5703V37.9118C45.9816 36.9584 45.7061 36.0253 45.1872 35.2245L43.6179 32.7979C43.1149 32.0212 42.8393 31.1205 42.8245 30.1957C42.8116 29.3782 42.7792 28.4544 42.7375 27.5084H44.7693C44.7721 27.5741 44.7748 27.6397 44.7776 27.7054C44.7888 27.9754 44.7998 28.2436 44.81 28.5063C44.81 28.5239 44.8525 29.9406 44.8562 30.1958C44.8711 31.1206 45.1466 32.0212 45.6488 32.798L47.219 35.2246C47.6445 35.8828 48.0124 36.6214 48.0125 37.4219L47.9148 37.5901L47.9002 56.5703L48.0124 56.7438V60.5703Z" fill="#FEDF30"/>
<path d="M43.9791 17H42.2401L41.9507 17.1372L40.0467 17.117L39.76 17H38.021C37.7502 17 37.5034 17.1552 37.3874 17.3998C37.152 17.8965 36.7679 18.7801 36.5827 19.612C36.4856 20.0479 36.8226 20.4602 37.2692 20.4602H44.7308C45.1773 20.4602 45.5144 20.0479 45.4173 19.612C45.232 18.7801 44.8479 17.8965 44.6126 17.3998C44.4966 17.1552 44.2498 17 43.9791 17V17Z" fill="#00C27A"/>
<path d="M44.7305 20.4599H42.8809C43.3275 20.4599 43.6642 20.0475 43.5671 19.6119C43.3821 18.7806 42.9984 17.8965 42.7625 17.3999C42.6469 17.1548 42.4 17.0003 42.129 17.0003H43.9786C44.2495 17.0003 44.4964 17.1548 44.6129 17.3999C44.8478 17.8964 45.2316 18.7805 45.4175 19.6119C45.5146 20.0475 45.1771 20.4599 44.7305 20.4599Z" fill="#08B865"/>
<path d="M33.9875 37.4218H48.0126V56.7437H33.9875V37.4218Z" fill="#F3F0F3"/>
<path d="M48.0124 37.4218V56.7436H45.9816V37.9119C45.9816 37.7473 45.9733 37.5836 45.9567 37.4218H48.0124Z" fill="#E2DEE2"/>
<path d="M33.9875 44.3097H48.0126V49.8558H33.9875V44.3097Z" fill="#BBEC6C"/>
<path d="M45.9808 44.3097H48.0126V49.8558H45.9808V44.3097Z" fill="#A2E62E"/>
<path d="M41 23.6857C40.3152 23.6857 39.76 23.1306 39.76 22.4457V17H42.2401V22.4457C42.2401 23.1305 41.6849 23.6857 41 23.6857Z" fill="#FEE97D"/>
<path d="M42.2401 17.0004V22.4454C42.2401 23.1306 41.6852 23.6855 41 23.6855C40.7818 23.6855 40.5756 23.6291 40.3979 23.5292C40.778 23.3183 41.036 22.9114 41.036 22.4454V17.0004H42.2401Z" fill="#FEE45A"/>
<path d="M40.9999 53.1703C39.0597 53.1703 37.4723 51.5828 37.4723 49.6428V44.5228C37.4723 42.5827 39.0597 40.9952 40.9999 40.9952C42.9401 40.9952 44.5275 42.5827 44.5275 44.5228V49.6428C44.5275 51.5829 42.9401 53.1703 40.9999 53.1703Z" fill="#00C27A"/>
<path d="M44.5279 44.523V49.6425C44.5279 51.5827 42.9401 53.1705 40.9999 53.1705C40.6698 53.1705 40.3498 53.1242 40.0465 53.0391C41.5279 52.6202 42.6211 51.2525 42.6211 49.6425V44.523C42.6211 43.553 42.2243 42.6707 41.5845 42.0317C41.1627 41.6091 40.6356 41.2929 40.0466 41.1264C40.3499 41.0413 40.6698 40.995 41 40.995C41.9701 40.995 42.8523 41.3918 43.4913 42.0316C44.1312 42.6707 44.5279 43.553 44.5279 44.523Z" fill="#08B865"/>
</g>
<defs>
<clipPath id="clip0">
<rect width="46" height="46" fill="white" transform="translate(18 17)"/>
</clipPath>
</defs>
</svg>
