<svg width="81" height="81" viewBox="0 0 81 81" fill="none" xmlns="http://www.w3.org/2000/svg">
<circle cx="40.5" cy="40.5" r="40" fill="white" stroke="#F2F0EE"/>
<path d="M35.2032 59.2317H59.8862C60.9189 59.2317 61.7561 58.3946 61.7561 57.3618V35.2316C61.7561 34.4876 62.0394 33.7654 62.5669 33.2407C63.4884 32.3243 64 31.3122 64 30.248C64 26.117 56.2978 22.7683 46.7967 22.7683H35.2032V59.2317Z" fill="#B78B7A"/>
<path d="M57.7405 41.5257C51.1042 48.1622 42.701 51.5122 35.2032 51.2444V59.2316H59.8862C60.919 59.2316 61.7561 58.3945 61.7561 57.3617V36.7513C60.5899 38.4131 59.2508 40.0154 57.7405 41.5257Z" fill="#AA7A63"/>
<path d="M52.4065 30.248C52.4065 26.117 44.7043 22.7683 35.2032 22.7683C25.702 22.7683 18 26.117 18 30.248C18 31.3122 18.5115 32.3242 19.433 33.2407C19.9606 33.7654 20.2438 34.4876 20.2438 35.2316V57.3618C20.2438 58.3946 21.081 59.2317 22.1138 59.2317H48.2926C49.3254 59.2317 50.1625 58.3946 50.1625 57.3618V35.2316C50.1625 34.4876 50.4458 33.7654 50.9734 33.2407C51.895 32.3243 52.4065 31.3122 52.4065 30.248Z" fill="#E7A561"/>
<path d="M52.4065 30.248C52.4065 26.117 44.7043 22.7683 35.2032 22.7683C25.702 22.7683 18 26.117 18 30.248C18 31.3122 18.5115 32.3242 19.433 33.2407C19.9606 33.7654 20.2438 34.4876 20.2438 35.2316V57.3618C20.2438 58.3946 21.081 59.2317 22.1138 59.2317H48.2926C49.3254 59.2317 50.1625 58.3946 50.1625 57.3618V35.2316C50.1625 34.4876 50.4458 33.7654 50.9734 33.2407C51.895 32.3243 52.4065 31.3122 52.4065 30.248Z" fill="#E7A561"/>
<path d="M46.5211 46.8016C38.7541 54.5686 28.5671 57.835 20.244 56.0671V57.3618C20.244 58.3946 21.0811 59.2317 22.1139 59.2317H48.2927C49.3255 59.2317 50.1626 58.3946 50.1626 57.3618V42.5504C49.0866 44.0256 47.8723 45.4503 46.5211 46.8016Z" fill="#E49542"/>
<path d="M23.2358 56.2398V35.2316C23.2358 33.6882 22.6187 32.1893 21.5427 31.1193C21.1366 30.7154 20.9918 30.4044 20.9918 30.2479C20.9918 29.8771 21.7838 28.7671 24.2316 27.7028C27.0711 26.4682 31.07 25.7602 35.2031 25.7602C39.3362 25.7602 43.3352 26.4682 46.1748 27.7028C48.6225 28.7671 49.4145 29.8771 49.4145 30.2479C49.4145 30.4043 49.2698 30.7154 48.8636 31.1193C47.7877 32.1893 47.1707 33.6882 47.1707 35.2316V56.2399H23.2358V56.2398Z" fill="#F1D0A5"/>
<path d="M46.5211 46.8016C41.2294 52.0933 34.8144 55.2951 28.6309 56.2399H47.1707V46.1331C46.9574 46.3576 46.7417 46.5809 46.5211 46.8016Z" fill="#F1B986"/>
<path d="M26.6951 35.5773C27.2115 35.5773 27.6301 35.1587 27.6301 34.6423C27.6301 34.1259 27.2115 33.7073 26.6951 33.7073C26.1787 33.7073 25.7601 34.1259 25.7601 34.6423C25.7601 35.1587 26.1787 35.5773 26.6951 35.5773Z" fill="#F1B986"/>
<path d="M26.6951 31.8375C27.2115 31.8375 27.6301 31.4189 27.6301 30.9025C27.6301 30.3861 27.2115 29.9675 26.6951 29.9675C26.1787 29.9675 25.7601 30.3861 25.7601 30.9025C25.7601 31.4189 26.1787 31.8375 26.6951 31.8375Z" fill="#F1B986"/>
<path d="M30.4349 31.8375C30.9513 31.8375 31.3699 31.4189 31.3699 30.9025C31.3699 30.3861 30.9513 29.9675 30.4349 29.9675C29.9186 29.9675 29.4999 30.3861 29.4999 30.9025C29.4999 31.4189 29.9186 31.8375 30.4349 31.8375Z" fill="#F1B986"/>
</svg>
