<svg width="81" height="81" viewBox="0 0 81 81" fill="none" xmlns="http://www.w3.org/2000/svg">
<circle cx="40.5" cy="40.5" r="40" fill="white" stroke="#F2F0EE"/>
<g clip-path="url(#clip0)">
<path d="M37.0192 31.6193C35.497 32.586 33.842 33.1563 32.0505 33.6621C26.4531 35.2424 20.2095 36.7879 18.3992 43.1143C17.4533 46.4204 18.2778 50.0402 19.932 52.9802C23.2168 58.8184 30.57 61.7273 37.0484 61.7132C44.2206 61.6975 51.4122 58.443 56.5162 53.4726C62.0128 48.1197 64.4726 40.324 63.9253 32.7999C63.7415 30.2722 63.1801 28.3684 61.9912 26.0993C60.4779 23.2112 57.8785 21.1988 54.6751 20.538C53.3112 20.2567 51.893 20.1973 50.5176 20.4333C47.2934 20.9867 44.4898 23.3373 42.3643 25.7011C40.7369 27.5105 39.0658 30.3197 37.0192 31.6193Z" fill="#D77F4A"/>
<path d="M56.5161 53.4727C51.4117 58.4429 44.2206 61.6976 37.0489 61.7132C32.7163 61.7224 27.9933 60.4249 24.3574 57.8181C27.7112 59.7285 31.7065 60.6777 35.4151 60.6694C42.5878 60.6538 49.7789 57.3991 54.8833 52.4289C60.38 47.0765 62.8399 39.2808 62.2922 31.7561C62.1084 29.2291 61.547 27.3252 60.3579 25.0556C59.6173 23.6406 58.6139 22.4359 57.4084 21.4977C59.3546 22.4993 60.9368 24.0871 61.9907 26.0994C63.1797 28.3682 63.7412 30.272 63.925 32.7999C64.4727 40.3237 62.0128 48.1194 56.5161 53.4727Z" fill="#C86D36"/>
<path d="M36.7225 35.5557C35.47 36.1926 34.1764 36.7145 32.9916 37.049C31.184 37.5593 29.3109 37.811 27.5156 38.3701C26.6697 38.6335 25.7746 38.9186 25.0167 39.392C21.8515 41.369 20.7771 45.5026 21.8765 48.9343C23.1902 53.0349 26.5912 55.6875 30.5592 57.1321C34.0015 58.3853 37.6567 58.6502 41.244 57.9146C49.0191 56.3202 54.7042 52.0988 58.4603 45.0424C59.5543 42.9872 60.4422 40.8282 60.8433 38.5245C61.7909 33.0801 59.736 23.4925 52.7216 23.724C50.6612 23.792 48.7427 24.67 47.1526 25.9481C44.7045 27.9159 43.2004 30.7994 40.8349 32.856C39.7045 33.8388 38.2438 34.782 36.7225 35.5557Z" fill="#9E5528"/>
<path d="M60.8431 38.5245C60.4425 40.8281 59.5539 42.9875 58.4604 45.0422C54.704 52.0991 49.019 56.3204 41.2444 57.9147C37.6571 58.6507 34.0018 58.3851 30.5597 57.1318C28.348 56.3269 26.3126 55.1471 24.7175 53.55C26.0232 54.5268 27.5164 55.295 29.0997 55.872C32.5418 57.1244 36.197 57.39 39.7843 56.654C47.5599 55.0597 53.2449 50.8384 57.0013 43.7824C58.0948 41.7268 58.9823 39.5675 59.3839 37.2639C60.0327 33.5332 59.2727 27.8583 56.4729 24.7295C60.4609 27.3023 61.5938 34.2131 60.8431 38.5245Z" fill="#904D24"/>
<path d="M34.7875 52.2673C37.8675 51.7519 39.9932 49.1161 39.5354 46.3801C39.0776 43.6442 36.2095 41.8441 33.1295 42.3595C30.0494 42.8749 27.9237 45.5107 28.3816 48.2467C28.8394 50.9826 31.7074 52.7827 34.7875 52.2673Z" fill="#ECBBA3"/>
<path d="M34.7838 52.2838C31.7129 52.7965 28.8543 51.0092 28.382 48.2876C29.5737 49.7367 31.6357 50.5205 33.8024 50.1584C36.8843 49.6439 39.0116 47.0085 38.5539 44.2712C38.5521 44.2621 38.5511 44.2538 38.5493 44.2445C39.051 44.8556 39.3992 45.5843 39.5344 46.3957C39.9919 49.1329 37.8648 51.7692 34.7838 52.2838Z" fill="#E8AD8C"/>
<path d="M48.7406 42.5117C48.7249 42.5117 48.7091 42.5112 48.6933 42.5101C43.6802 42.17 41.9923 37.6151 41.9229 37.4214C41.7945 37.0631 41.9809 36.6686 42.3392 36.5402C42.6969 36.4121 43.0909 36.5976 43.2199 36.9549C43.2786 37.1163 44.6894 40.8569 48.7865 41.135C49.1663 41.1607 49.4532 41.4895 49.4274 41.8692C49.4027 42.233 49.0999 42.5117 48.7406 42.5117Z" fill="#8E431A"/>
<path d="M50.95 38.3877C50.9343 38.3877 50.9185 38.3872 50.9027 38.3861C46.9919 38.1207 45.6748 34.5666 45.6206 34.4154C45.4922 34.0571 45.6786 33.6626 46.0369 33.5342C46.3941 33.4061 46.7884 33.5916 46.9175 33.9487C46.963 34.0729 48.0037 36.808 50.9959 37.011C51.3757 37.0367 51.6627 37.3655 51.6368 37.7452C51.6122 38.1089 51.3094 38.3877 50.95 38.3877Z" fill="#8E431A"/>
<path d="M53.7509 33.975C53.7352 33.975 53.7193 33.9745 53.7035 33.9734C50.6349 33.7652 49.6012 30.9755 49.5586 30.8568C49.4302 30.4985 49.6166 30.104 49.9749 29.9756C50.3323 29.8477 50.7258 30.0327 50.8552 30.3894C50.8893 30.4812 51.646 32.4522 53.7968 32.5982C54.1766 32.624 54.4635 32.9527 54.4376 33.3325C54.413 33.6963 54.1102 33.975 53.7509 33.975Z" fill="#8E431A"/>
</g>
<defs>
<clipPath id="clip0">
<rect width="46" height="46" fill="white" transform="translate(18 18)"/>
</clipPath>
</defs>
</svg>
