<svg width="81" height="81" viewBox="0 0 81 81" fill="none" xmlns="http://www.w3.org/2000/svg">
<circle cx="40.5" cy="40.5" r="40" fill="white" stroke="#F2F0EE"/>
<path d="M58.3662 65.9996L54.6925 64.1484L51.0187 65.9996L47.3455 64.1484L43.6722 65.9996L39.9989 64.1484L36.3258 65.9996L32.6531 64.1484L28.98 65.9996L25.3069 64.1484L21.6338 65.9996V61.209H58.3662V65.9996Z" fill="#CBC4CC"/>
<path d="M58.3662 61.6273V66L56.3947 65.0068V61.6273H58.3662Z" fill="#B5ADB6"/>
<path d="M58.3662 20.0009L54.6925 21.8521L51.0187 20.0009L47.3455 21.8521L43.6722 20.0009L39.9989 21.8521L36.3258 20.0009L32.6531 21.8521L28.98 20.0009L25.3069 21.8521L21.6338 20.0009V24.6691H58.3662V20.0009Z" fill="#CBC4CC"/>
<path d="M58.3662 20V24.3727H56.3947V20.9932L58.3662 20Z" fill="#B5ADB6"/>
<path d="M55.7603 30.7496C55.7603 30.0585 55.9994 29.3887 56.437 28.8538L57.6894 27.3231C58.1271 26.7882 58.3661 26.1184 58.3661 25.4274V24.3727H21.6338V25.4274C21.6338 26.1184 21.8729 26.7882 22.3105 27.3232L23.5629 28.8539C24.0005 29.3887 24.2396 30.0585 24.2396 30.7496V36.0422L24.3943 36.3676V43L24.3874 49.582L24.2396 49.9036V55.2505C24.2396 55.9415 24.0005 56.6113 23.5629 57.1462L22.3105 58.6769C21.8729 59.2118 21.6338 59.8815 21.6338 60.5726V61.6273H58.3662V60.5726C58.3662 59.8815 58.1272 59.2118 57.6895 58.6768L56.4371 57.1461C55.9995 56.6112 55.7604 55.9414 55.7604 55.2504V49.9036L55.5962 49.4811L55.6011 43V36.3394L55.7603 36.0422V30.7496Z" fill="#E94444"/>
<path d="M55.7607 55.2504C55.7607 55.9418 55.9995 56.6111 56.4373 57.1461L57.6896 58.677C58.1274 59.212 58.3662 59.8813 58.3662 60.5727V61.627H56.3965V60.5727C56.3965 59.8813 56.1568 59.212 55.719 58.677L54.4667 57.1461C54.0297 56.6111 53.79 55.9418 53.79 55.2504V30.7499C53.79 30.0585 54.0297 29.3883 54.4667 28.8542L55.719 27.3232C56.1568 26.7882 56.3965 26.118 56.3965 25.4275V24.3723H58.3662V25.4276C58.3662 26.1181 58.1274 26.7882 57.6896 27.3233L56.4373 28.8543C55.9995 29.3884 55.7607 30.0586 55.7607 30.75V55.2504Z" fill="#D83131"/>
<path d="M24.2396 36.0421H55.7603V49.9036H24.2396V36.0421Z" fill="#F3F0F3"/>
<path d="M53.7899 36.0421H55.7603V49.9036H53.7899V36.0421Z" fill="#E2DEE2"/>
<path d="M40.4051 40.5554C40.4035 40.5512 40.4019 40.5468 40.4001 40.5425C40.3121 40.3288 40.1059 40.1907 39.8747 40.1907C39.8744 40.1907 39.8742 40.1907 39.874 40.1907C39.6425 40.191 39.4363 40.3296 39.3487 40.5439C39.3472 40.5473 39.3459 40.5508 39.3445 40.5544L37.5974 45.1418C37.5063 45.3806 37.6262 45.648 37.8651 45.739C38.1039 45.8297 38.3714 45.7101 38.4623 45.4712L38.7839 44.6267H40.9522L41.2704 45.4699C41.3404 45.6553 41.5165 45.7695 41.7035 45.7694C41.7577 45.7694 41.813 45.7598 41.8668 45.7395C42.1059 45.6493 42.2266 45.3822 42.1363 45.1431L40.4051 40.5554ZM39.1366 43.7011L39.8731 41.7672L40.6029 43.7011H39.1366Z" fill="#CBC4CC"/>
<path d="M36.01 40.1766C35.7544 40.1792 35.5492 40.3883 35.5516 40.644L35.583 43.8812L33.1687 40.3853C33.0536 40.2186 32.8436 40.1461 32.6501 40.2064C32.4568 40.2667 32.3251 40.4456 32.3251 40.6482V45.3063C32.3251 45.5619 32.5323 45.7691 32.7879 45.7691C33.0434 45.7691 33.2506 45.5619 33.2506 45.3063V42.1329L35.5566 45.472C35.6974 45.6755 35.9303 45.7626 36.15 45.6938C36.3752 45.6234 36.5208 45.4096 36.5208 45.1445L36.4772 40.6349C36.4748 40.3793 36.2694 40.1748 36.01 40.1766Z" fill="#CBC4CC"/>
<path d="M52.4413 44.9734L50.2758 42.8841L52.2679 41.053C52.4562 40.88 52.4685 40.5872 52.2955 40.3991C52.1224 40.2107 51.8297 40.1985 51.6416 40.3715L49.9146 41.9588V40.6536C49.9146 40.398 49.7074 40.1908 49.4518 40.1908C49.1962 40.1908 48.989 40.398 48.989 40.6536V45.3065C48.989 45.5621 49.1962 45.7693 49.4518 45.7693C49.7074 45.7693 49.9146 45.5621 49.9146 45.3065V43.8219L51.7986 45.6396C51.8884 45.7263 52.0043 45.7694 52.1199 45.7694C52.2412 45.7694 52.3622 45.722 52.4531 45.6279C52.6305 45.444 52.6252 45.151 52.4413 44.9734Z" fill="#CBC4CC"/>
<path d="M46.7612 44.3523C46.717 44.405 46.6691 44.4543 46.6191 44.499C46.3622 44.7278 46.0361 44.8437 45.65 44.8437C44.6224 44.8437 43.7864 44.0076 43.7864 42.9801C43.7864 41.9525 44.6225 41.1165 45.65 41.1165C46.0235 41.1165 46.3838 41.2263 46.6917 41.4344C46.9033 41.5776 47.1912 41.5218 47.3342 41.3101C47.4774 41.0983 47.4217 40.8106 47.2099 40.6675C46.7485 40.3557 46.2091 40.1909 45.6501 40.1909C44.1121 40.1909 42.8608 41.4421 42.8608 42.9802C42.8608 44.5182 44.1121 45.7695 45.6501 45.7695C46.2613 45.7695 46.8094 45.5691 47.2349 45.1902C47.3183 45.1159 47.3974 45.0341 47.4703 44.9474C47.6346 44.7516 47.609 44.4597 47.4132 44.2954C47.2174 44.1309 46.9255 44.1564 46.7612 44.3523Z" fill="#CBC4CC"/>
<path d="M30.0656 42.5824C29.4748 42.3645 28.9262 42.1268 28.779 42.0621C28.6477 41.9637 28.5842 41.808 28.6084 41.6395C28.6397 41.4215 28.8092 41.2458 29.0618 41.1697C29.7833 40.9526 30.44 41.4781 30.452 41.4878C30.6476 41.6506 30.9381 41.6247 31.1022 41.4296C31.2667 41.234 31.2413 40.9421 31.0456 40.7776C31.0037 40.7424 30.0053 39.9185 28.7949 40.2836C28.1973 40.4635 27.7748 40.9327 27.6922 41.508C27.5147 42.744 28.8485 43.1202 29.7454 43.451C30.2359 43.6319 30.4859 43.9111 30.4313 44.2169C30.3762 44.5251 30.0134 44.8438 29.5016 44.8438C29.0061 44.8438 28.5282 44.6427 28.2231 44.3061C28.0515 44.1167 27.7589 44.1022 27.5694 44.2739C27.38 44.4455 27.3656 44.7381 27.5372 44.9276C28.0149 45.4547 28.7492 45.7694 29.5017 45.7694C30.4097 45.7694 31.2012 45.172 31.3427 44.3796C31.4498 43.7781 31.1708 42.9901 30.0656 42.5824Z" fill="#CBC4CC"/>
</svg>
