<svg width="81" height="81" viewBox="0 0 81 81" fill="none" xmlns="http://www.w3.org/2000/svg">
<circle cx="40.5" cy="40.5" r="40" fill="white" stroke="#F2F0EE"/>
<g clip-path="url(#clip0)">
<path d="M41 65C39.8131 65 38.8511 64.0379 38.8511 62.8511V50.5133H43.1488V62.8511C43.1488 64.0379 42.1867 65 41 65Z" fill="#F4D7C8"/>
<path d="M43.1493 51.1371V62.8512C43.1493 64.0377 42.1864 64.9996 41 64.9996C40.6692 64.9996 40.3559 64.9248 40.0759 64.7917C40.8004 64.4461 41.3012 63.7069 41.3012 62.8512V51.1371H43.1493Z" fill="#ECBBA3"/>
<path d="M47.6488 21.1412V48.9957C47.6488 50.1783 46.6902 51.1369 45.5075 51.1369H36.4924C35.3098 51.1369 34.3512 50.1783 34.3512 48.9957V21.1412C34.3512 19.9586 35.3098 19 36.4924 19H45.5075C46.6901 19 47.6488 19.9586 47.6488 21.1412Z" fill="#C8EFFE"/>
<path d="M47.6486 21.1411V48.9959C47.6486 50.1778 46.6903 51.1369 45.5075 51.1369H43.6594C44.8422 51.1369 45.8005 50.1778 45.8005 48.9959V21.1411C45.8005 19.9583 44.8422 19 43.6594 19H45.5075C46.6903 19.0001 47.6486 19.9583 47.6486 21.1411Z" fill="#99E6FC"/>
<path d="M48.9198 26.8997C48.9198 28.2749 47.645 29.2957 46.303 28.995L34.7577 26.8329C33.7771 26.6131 33.0801 25.7426 33.0801 24.7376V24.737C33.0801 23.3617 34.355 22.3409 35.697 22.6417L47.2422 24.8045C48.2229 25.0243 48.9198 25.8948 48.9198 26.8997Z" fill="#E94444"/>
<path d="M48.9198 36.149V36.1506C48.9198 37.5259 47.6449 38.5466 46.3029 38.2458L34.7576 36.0831C33.7771 35.8632 33.0801 34.9928 33.0801 33.9878V33.987C33.0801 32.6117 34.3549 31.5909 35.6969 31.8917L47.2421 34.0538C48.2228 34.2736 48.9198 35.1441 48.9198 36.149Z" fill="#E94444"/>
<path d="M48.9198 45.4C48.9198 46.7752 47.645 47.796 46.303 47.4952L34.7577 45.3331C33.7771 45.1134 33.0801 44.2429 33.0801 43.2379V43.2373C33.0801 41.8619 34.355 40.8412 35.697 41.142L47.2422 43.3047C48.2229 43.5245 48.9198 44.395 48.9198 45.4Z" fill="#E94444"/>
<path d="M48.9201 26.8999C48.9201 28.2748 47.6449 29.2959 46.3032 28.9947L44.2148 28.5762C45.5566 28.8765 46.8318 27.8563 46.8318 26.4804C46.8318 25.5684 46.2571 24.7671 45.418 24.4622L47.2421 24.8042C48.2225 25.024 48.9201 25.8944 48.9201 26.8999Z" fill="#D83131"/>
<path d="M48.9201 36.1487V36.1505C48.9201 37.5255 47.6449 38.5467 46.3032 38.2454L44.2148 37.8268C45.5566 38.1272 46.8318 37.107 46.8318 35.731V35.7302C46.8318 34.819 46.2599 34.0188 45.4217 33.7129L47.2421 34.0538C48.2225 34.2738 48.9201 35.1443 48.9201 36.1487Z" fill="#D83131"/>
<path d="M48.9201 45.3995C48.9201 46.7755 47.6449 47.7955 46.3032 47.4953L44.2148 47.0758C45.5566 47.3771 46.8318 46.356 46.8318 44.9809C46.8318 44.0698 46.2599 43.2705 45.4235 42.9637L47.242 43.3047C48.2225 43.5246 48.9201 44.395 48.9201 45.3995Z" fill="#D83131"/>
</g>
<defs>
<clipPath id="clip0">
<rect width="46" height="46" fill="white" transform="translate(18 19)"/>
</clipPath>
</defs>
</svg>
